<svg xmlns="http://www.w3.org/2000/svg" viewBox="0 0 100 100" fill="none">
  <rect width="100" height="100" rx="22" fill="#0b0f17" />
  <path d="M 50,19.69 L 65,28.35 L 50,37.01 L 35,28.35 Z M 35,28.35 L 35,45.67 L 50,54.33 L 65,45.67 L 65,28.35 M 50,37.01 L 50,54.33 M 35,45.67 L 20,54.33 L 35,62.99 L 50,54.33 M 20,54.33 L 20,71.65 L 35,80.31 L 50,71.65 L 50,54.33 M 35,62.99 L 35,80.31 M 50,54.33 L 65,62.99 L 80,54.33 L 65,45.67 M 80,54.33 L 80,71.65 L 65,80.31 L 50,71.65 M 65,62.99 L 65,80.31" stroke="#ffffff" stroke-width="4.5" stroke-linecap="round" stroke-linejoin="round" />
</svg>
